<?xml version="1.0" encoding="iso-8859-1"?>
<!-- Generator: Adobe Illustrator 17.1.0, SVG Export Plug-In . SVG Version: 6.00 Build 0)  -->
<!DOCTYPE svg PUBLIC "-//W3C//DTD SVG 1.1//EN" "http://www.w3.org/Graphics/SVG/1.1/DTD/svg11.dtd">
<svg version="1.1" id="Capa_1" xmlns="http://www.w3.org/2000/svg" xmlns:xlink="http://www.w3.org/1999/xlink" x="0px" y="0px"
	 viewBox="0 0 475.801 475.801" style="enable-background:new 0 0 475.801 475.801;" xml:space="preserve">
<path d="M406.121,69.68C361.187,24.746,301.445,0,237.9,0C174.355,0,114.613,24.746,69.679,69.68C24.746,114.613,0,174.355,0,237.9
	s24.746,123.287,69.679,168.221c44.933,44.934,104.675,69.68,168.221,69.68c63.545,0,123.287-24.746,168.221-69.68
	s69.68-104.676,69.68-168.221S451.054,114.613,406.121,69.68z M237.9,460.801c-122.907,0-222.9-99.993-222.9-222.9
	S114.993,15,237.9,15s222.9,99.993,222.9,222.9S360.807,460.801,237.9,460.801z M450.2,237.9c0,4.143-3.357,7.5-7.5,7.5
	s-7.5-3.357-7.5-7.5c0-5.689-0.245-11.432-0.728-17.064c-0.354-4.127,2.705-7.76,6.832-8.113c4.131-0.343,7.76,2.705,8.113,6.832
	C449.936,225.612,450.2,231.785,450.2,237.9z M434.843,181.023c-0.777,0.256-1.567,0.377-2.343,0.377
	c-3.152,0-6.086-2.003-7.124-5.16C398.709,95.11,323.368,40.601,237.9,40.601c-4.142,0-7.5-3.357-7.5-7.5s3.358-7.5,7.5-7.5
	c45.608,0,89.075,14.246,125.701,41.196c35.89,26.409,62.179,62.635,76.024,104.76C440.919,175.491,438.778,179.73,434.843,181.023z
	 M237.9,50.209c-103.493,0-187.691,84.198-187.691,187.691S134.407,425.592,237.9,425.592S425.592,341.394,425.592,237.9
	S341.393,50.209,237.9,50.209z M237.9,410.592c-95.222,0-172.691-77.469-172.691-172.691S142.678,65.209,237.9,65.209
	c95.223,0,172.691,77.469,172.691,172.691S333.123,410.592,237.9,410.592z M117.896,237.9c0,4.143-3.358,7.5-7.5,7.5H83.804
	c-4.142,0-7.5-3.357-7.5-7.5s3.358-7.5,7.5-7.5h26.591C114.538,230.4,117.896,233.758,117.896,237.9z M357.904,237.9
	c0-4.143,3.357-7.5,7.5-7.5h26.592c4.143,0,7.5,3.357,7.5,7.5s-3.357,7.5-7.5,7.5h-26.592
	C361.261,245.4,357.904,242.043,357.904,237.9z M153.044,142.438c2.929,2.93,2.929,7.678,0,10.607
	c-1.464,1.464-3.384,2.196-5.303,2.196s-3.839-0.732-5.303-2.196l-18.803-18.803c-2.929-2.93-2.929-7.678,0-10.607
	c2.929-2.928,7.678-2.928,10.606,0L153.044,142.438z M352.166,341.559c2.929,2.93,2.929,7.678,0,10.607
	c-1.465,1.464-3.385,2.196-5.304,2.196s-3.839-0.732-5.304-2.196l-18.803-18.803c-2.929-2.93-2.929-7.678,0-10.607
	c2.93-2.928,7.678-2.928,10.607,0L352.166,341.559z M230.4,110.396V83.805c0-4.143,3.358-7.5,7.5-7.5c4.143,0,7.5,3.357,7.5,7.5
	v26.592c0,4.143-3.357,7.5-7.5,7.5C233.758,117.896,230.4,114.539,230.4,110.396z M245.4,365.404v26.592c0,4.143-3.357,7.5-7.5,7.5
	c-4.142,0-7.5-3.357-7.5-7.5v-26.592c0-4.143,3.358-7.5,7.5-7.5C242.043,357.904,245.4,361.262,245.4,365.404z M352.166,123.635
	c2.929,2.93,2.929,7.678,0,10.607l-18.803,18.803c-1.465,1.464-3.385,2.196-5.304,2.196s-3.839-0.732-5.304-2.196
	c-2.929-2.93-2.929-7.678,0-10.607l18.803-18.803C344.488,120.707,349.236,120.707,352.166,123.635z M153.044,322.756
	c2.929,2.93,2.929,7.678,0,10.607l-18.803,18.803c-1.464,1.464-3.384,2.196-5.303,2.196s-3.839-0.732-5.303-2.196
	c-2.929-2.93-2.929-7.678,0-10.607l18.803-18.803C145.366,319.828,150.115,319.828,153.044,322.756z M294.404,181.396
	c2.929,2.93,2.929,7.678,0,10.607l-51.2,51.2c-1.407,1.406-3.314,2.196-5.304,2.196s-3.897-0.79-5.303-2.196l-73.4-73.4
	c-2.929-2.93-2.929-7.678,0-10.607c2.929-2.929,7.678-2.927,10.606,0l68.097,68.098l45.896-45.897
	C286.726,178.469,291.474,178.469,294.404,181.396z"/>
<g>
</g>
<g>
</g>
<g>
</g>
<g>
</g>
<g>
</g>
<g>
</g>
<g>
</g>
<g>
</g>
<g>
</g>
<g>
</g>
<g>
</g>
<g>
</g>
<g>
</g>
<g>
</g>
<g>
</g>
</svg>
